<?xml version="1.0" encoding="utf-8"?>
<!-- Generator: Adobe Illustrator 21.0.0, SVG Export Plug-In . SVG Version: 6.00 Build 0)  -->
<svg version="1.1" id="Laag_1" xmlns="http://www.w3.org/2000/svg" xmlns:xlink="http://www.w3.org/1999/xlink" x="0px" y="0px"
	 viewBox="0 0 50 50" style="enable-background:new 0 0 50 50;" xml:space="preserve">
<style type="text/css">
	.st0{fill:#B8D7A1;stroke:#060707;stroke-width:14;stroke-miterlimit:10;}
	.st1{fill:#B8D7A1;}
	.st2{fill:#060707;}
	.st3{fill:#7BA568;}
	.st4{fill:#86AB79;}
	.st5{fill:#040506;}
	.st6{fill:none;stroke:#86AB79;stroke-width:0.5;stroke-miterlimit:10;}
</style>
<path class="st0" d="M53.2,38.2"/>
<path class="st0" d="M53.2,38.2"/>
<path class="st0" d="M28.7,13.7"/>
<path class="st0" d="M28.7,13.7"/>
<g>
	<circle class="st1" cx="24.5" cy="25" r="24.5"/>
	<g>
		<path class="st2" d="M1.1,24.9C1.5,11.8,11.9,0.5,25.5,1.3C38,2,47.9,12.7,47.9,25.1c0,13.2-11.1,24.4-24.4,23.6
			C10.8,48,1.4,37.3,1.1,24.9c0-1.1-2.2-0.7-2.2,0.2C-0.5,48,28.2,58.9,43.6,41.7C59.5,24,43.3-3.9,20.2,0.1
			C8,2.3-0.8,12.8-1.1,25.1C-1.1,26.2,1.1,25.8,1.1,24.9z"/>
	</g>
</g>
<path class="st3" d="M37.6,22.9c0.3,4.3-3.1,8.2-7.7,8.5"/>
<path class="st4" d="M36.7,13.3c3.1,3.1,2.9,8.2-0.3,11.5"/>
<path class="st3" d="M29.2,6.9c4.3-0.3,8.1,3.1,8.5,7.8"/>
<path class="st3" d="M19.8,7.3c3-3.2,8.1-3.1,11.5,0.1"/>
<path class="st3" d="M12.2,12.6c1-4.2,5.5-6.8,10-5.6"/>
<path id="XMLID_4_" class="st3" d="M13.5,22.8c-3.2-2.9-3.3-8.1-0.2-11.5"/>
<path class="st3" d="M12.3,21.4c-1.1,4.2,2.5,8.7,8,10.1"/>
<ellipse class="st3" cx="24.9" cy="19" rx="13.8" ry="12.9"/>
<g id="XMLID_2_">
	<g>
		<path class="st5" d="M22.4,17.4l2.9,2l1,0.7l1.2,1l0.5-0.4l3.4-3l0,0l1.2,1l1.7,2.3l-4.7,4.4c0,0.8,0,1.7,0,2.5
			c0,0.6,0,1.2,0.1,1.8c0.1,0.6,0.3,1.2,0.4,1.8c0.1,0.7,0.2,1.4,0.4,2c0.2,0.5,0.4,1,0.6,1.5c0.5,1.1,0.9,2.1,1.6,3.2
			c0.8,1.3,1.8,2.6,3.1,3.5c0.2,0.2,0.4,0.4,0.7,0.5c0.2,0.1,0.5,0.1,0.7,0.2l-24.9,0.7c0.3-0.1,0.5-0.3,0.8-0.3
			c0.3-0.1,0.6-0.2,0.8-0.3c0.5-0.2,1-0.4,1.4-0.8c0.2-0.2,0.4-0.4,0.7-0.6c0.3-0.2,0.4-0.5,0.6-0.7c0.5-0.5,0.8-1.2,1.2-1.8
			c0.2-0.3,0.4-0.5,0.5-0.8c0.2-0.5,0.5-0.9,0.7-1.3c0.5-1.1,0.9-2.2,1.3-3.3c0.2-0.7,0.4-1.3,0.6-2c0.2-0.6,0.2-1.3,0.3-2
			c0.1-0.7,0-1.4,0-2.1c0-0.5,0.1-1.1,0.1-1.6L15,20.5l4.4-5.2l0,0L22.4,17.4z"/>
		<polygon class="st5" points="25.3,19.4 29.1,15.6 30.8,17.1 31.5,17.6 31.4,17.7 28,20.7 27.5,21.1 26.3,20.1 		"/>
		<polygon class="st5" points="22.4,17.4 26.1,13.7 26.1,13.6 28.2,14.9 29.1,15.6 25.3,19.4 		"/>
		<polygon class="st5" points="26.1,13.7 22.4,17.4 19.4,15.4 19.4,15.4 22.3,12 22.9,11.5 25.6,13.3 26.1,13.6 		"/>
		<path class="st5" d="M12,42.9l0.2,0C12.2,42.9,12.1,42.9,12,42.9z"/>
	</g>
	<g>
		<line class="st6" x1="31.8" y1="20.7" x2="30" y2="22.5"/>
		<line class="st6" x1="29.7" y1="25.3" x2="34.3" y2="20.9"/>
		<line class="st6" x1="32.7" y1="18.6" x2="34.3" y2="20.9"/>
		<line class="st6" x1="30" y1="22.5" x2="28" y2="20.7"/>
		<line class="st6" x1="27.5" y1="21.1" x2="26.3" y2="20.1"/>
		<path class="st6" d="M12,42.9c0.1,0,0.2,0,0.2,0c0.3-0.1,0.5-0.3,0.8-0.3c0.3-0.1,0.6-0.2,0.8-0.3c0.5-0.2,1-0.4,1.4-0.8
			c0.2-0.2,0.4-0.4,0.7-0.6c0.3-0.2,0.4-0.5,0.6-0.7c0.5-0.5,0.8-1.2,1.2-1.8c0.2-0.3,0.4-0.5,0.5-0.8c0.2-0.5,0.5-0.9,0.7-1.3
			c0.5-1.1,0.9-2.2,1.3-3.3c0.2-0.7,0.4-1.3,0.6-2c0.2-0.6,0.2-1.3,0.3-2c0.1-0.7,0-1.4,0-2.1c0-0.5,0.1-1.1,0.1-1.6"/>
		<path class="st6" d="M29.7,25.3c0,0.8,0,1.7,0,2.5c0,0.6,0,1.2,0.1,1.8c0.1,0.6,0.3,1.2,0.4,1.8c0.1,0.7,0.2,1.4,0.4,2
			c0.2,0.5,0.4,1,0.6,1.5c0.5,1.1,0.9,2.1,1.6,3.2c0.8,1.3,1.8,2.6,3.1,3.5c0.2,0.2,0.4,0.4,0.7,0.5c0.2,0.1,0.5,0.1,0.7,0.2
			c0.6,0.1,1.2-0.1,1.9-0.2"/>
		<line class="st6" x1="21.4" y1="25.3" x2="15" y2="20.5"/>
		<polyline class="st6" points="22.3,12 19.4,15.4 15,20.5 		"/>
		<polyline class="st6" points="19.4,15.4 22.4,17.4 25.3,19.4 26.3,20.1 		"/>
		<line class="st6" x1="24.1" y1="22.2" x2="26.3" y2="20.1"/>
		<line class="st6" x1="20.5" y1="20.5" x2="24.1" y2="22.2"/>
		<line class="st6" x1="22.3" y1="12" x2="22.9" y2="11.5"/>
		<line class="st6" x1="25.6" y1="13.3" x2="22.9" y2="11.5"/>
		<line class="st6" x1="22.4" y1="17.4" x2="26.1" y2="13.7"/>
		<line class="st6" x1="25.3" y1="19.4" x2="29.1" y2="15.6"/>
		<polyline class="st6" points="27.5,21.1 28,20.7 31.4,17.7 		"/>
		<polyline class="st6" points="28.2,14.9 29.1,15.6 30.8,17.1 		"/>
		<polyline class="st6" points="32.7,18.6 31.5,17.6 30.8,17.1 		"/>
		<polyline class="st6" points="25.6,13.3 26.1,13.6 28.2,14.9 		"/>
		<polyline class="st6" points="12,42.9 12.3,42.9 37.1,42.2 		"/>
	</g>
</g>
</svg>
